<svg xmlns="http://www.w3.org/2000/svg" xmlns:xlink="http://www.w3.org/1999/xlink" width="500" zoomAndPan="magnify" viewBox="0 0 375 374.999991" height="500" preserveAspectRatio="xMidYMid meet" version="1.0"><defs><g/><clipPath id="f346ab6619"><path d="M 129 90 L 274.410156 90 L 274.410156 186 L 129 186 Z M 129 90 " clip-rule="nonzero"/></clipPath><clipPath id="42c826784a"><path d="M 124 132 L 272 132 L 272 239.957031 L 124 239.957031 Z M 124 132 " clip-rule="nonzero"/></clipPath></defs><path fill="#a7a9ac" d="M 189.164062 94.300781 C 192.941406 94.296875 196.699219 94.574219 200.4375 95.136719 C 204.171875 95.703125 207.847656 96.542969 211.457031 97.664062 C 215.066406 98.785156 218.570312 100.167969 221.96875 101.820312 C 225.367188 103.472656 228.625 105.367188 231.734375 107.511719 L 244.730469 96.710938 C 242.792969 95.09375 240.785156 93.566406 238.710938 92.125 C 236.632812 90.6875 234.5 89.34375 232.304688 88.097656 C 230.109375 86.847656 227.863281 85.699219 225.566406 84.652344 C 223.269531 83.605469 220.929688 82.660156 218.550781 81.820312 C 216.167969 80.980469 213.753906 80.25 211.308594 79.625 C 208.863281 79 206.394531 78.484375 203.902344 78.078125 C 201.410156 77.675781 198.90625 77.382812 196.386719 77.199219 C 193.867188 77.019531 191.347656 76.949219 188.824219 76.992188 C 186.296875 77.035156 183.78125 77.1875 181.269531 77.457031 C 178.757812 77.722656 176.265625 78.101562 173.789062 78.589844 C 171.3125 79.078125 168.863281 79.679688 166.4375 80.386719 C 164.015625 81.09375 161.625 81.90625 159.277344 82.828125 C 156.925781 83.746094 154.617188 84.769531 152.359375 85.894531 C 150.097656 87.019531 147.894531 88.242188 145.742188 89.566406 C 143.589844 90.886719 141.503906 92.300781 139.476562 93.808594 C 137.453125 95.316406 135.5 96.914062 133.617188 98.59375 C 131.730469 100.277344 129.925781 102.039062 128.203125 103.882812 C 126.476562 105.722656 124.835938 107.640625 123.277344 109.628906 C 121.722656 111.617188 120.257812 113.671875 118.886719 115.789062 C 117.515625 117.910156 116.238281 120.085938 115.058594 122.316406 C 113.878906 124.550781 112.804688 126.832031 111.828125 129.160156 C 110.851562 131.488281 109.980469 133.855469 109.214844 136.261719 C 108.453125 138.667969 107.796875 141.105469 107.246094 143.570312 C 106.699219 146.035156 106.261719 148.519531 105.933594 151.019531 C 105.609375 153.523438 105.394531 156.039062 105.289062 158.5625 C 105.1875 161.082031 105.195312 163.605469 105.320312 166.128906 C 105.441406 168.648438 105.671875 171.160156 106.019531 173.664062 C 106.363281 176.164062 106.820312 178.644531 107.386719 181.105469 C 107.953125 183.566406 108.628906 185.996094 109.410156 188.398438 C 110.191406 190.796875 111.082031 193.160156 112.074219 195.480469 C 113.066406 197.800781 114.160156 200.074219 115.355469 202.296875 C 116.550781 204.523438 117.84375 206.6875 119.230469 208.796875 L 124.988281 208.796875 C 123.253906 205.957031 121.71875 203.015625 120.375 199.972656 C 119.03125 196.929688 117.894531 193.8125 116.964844 190.621094 C 116.03125 187.425781 115.316406 184.183594 114.816406 180.894531 C 114.316406 177.609375 114.035156 174.300781 113.972656 170.972656 C 113.910156 167.648438 114.070312 164.332031 114.445312 161.027344 C 114.824219 157.722656 115.417969 154.457031 116.230469 151.230469 C 117.039062 148.003906 118.058594 144.847656 119.289062 141.757812 C 120.515625 138.664062 121.945312 135.667969 123.570312 132.765625 C 125.199219 129.867188 127.007812 127.082031 129.003906 124.421875 C 131 121.761719 133.160156 119.242188 135.488281 116.867188 C 137.820312 114.492188 140.292969 112.28125 142.914062 110.234375 C 145.539062 108.1875 148.285156 106.324219 151.152344 104.640625 C 154.023438 102.957031 156.988281 101.472656 160.054688 100.183594 C 163.121094 98.894531 166.261719 97.8125 169.46875 96.941406 C 172.679688 96.066406 175.933594 95.410156 179.230469 94.96875 C 182.527344 94.523438 185.835938 94.304688 189.164062 94.300781 Z M 189.164062 94.300781 " fill-opacity="1" fill-rule="nonzero"/><g clip-path="url(#f346ab6619)"><path fill="#39b54a" d="M 129.675781 134.707031 L 176.253906 134.707031 L 192.402344 150.101562 L 262.652344 91.5 L 274.285156 90.753906 L 191.996094 183.523438 C 191.777344 183.769531 191.535156 183.992188 191.273438 184.191406 C 191.007812 184.394531 190.726562 184.566406 190.429688 184.710938 C 190.132812 184.855469 189.824219 184.96875 189.503906 185.050781 C 189.183594 185.136719 188.855469 185.1875 188.527344 185.207031 C 188.195312 185.226562 187.867188 185.214844 187.539062 185.167969 C 187.210938 185.121094 186.890625 185.042969 186.578125 184.933594 C 186.265625 184.828125 185.96875 184.6875 185.683594 184.519531 C 185.398438 184.351562 185.132812 184.15625 184.882812 183.9375 Z M 129.675781 134.707031 " fill-opacity="1" fill-rule="nonzero"/></g><g clip-path="url(#42c826784a)"><path fill="#414042" d="M 266.289062 132.105469 L 252.214844 132.105469 C 251.644531 132.109375 251.089844 132.203125 250.550781 132.386719 C 250.007812 132.570312 249.511719 132.832031 249.058594 133.179688 C 248.605469 133.523438 248.214844 133.933594 247.894531 134.40625 C 247.574219 134.875 247.335938 135.386719 247.179688 135.9375 L 241.90625 154.613281 L 227.8125 154.613281 L 193.75 193.390625 C 193.472656 193.707031 193.167969 193.992188 192.835938 194.246094 C 192.503906 194.5 192.152344 194.71875 191.773438 194.902344 C 191.398438 195.089844 191.007812 195.234375 190.605469 195.34375 C 190.199219 195.449219 189.789062 195.515625 189.371094 195.542969 C 188.953125 195.570312 188.539062 195.554688 188.125 195.496094 C 187.710938 195.441406 187.304688 195.347656 186.90625 195.210938 C 186.511719 195.074219 186.132812 194.902344 185.773438 194.691406 C 185.410156 194.480469 185.074219 194.234375 184.761719 193.957031 L 140.382812 154.613281 L 127.332031 154.613281 C 127.125 154.613281 126.917969 154.640625 126.71875 154.6875 C 126.515625 154.738281 126.324219 154.808594 126.136719 154.90625 C 125.953125 155 125.78125 155.117188 125.625 155.253906 C 125.46875 155.390625 125.332031 155.542969 125.210938 155.714844 C 125.089844 155.882812 124.992188 156.066406 124.917969 156.257812 C 124.839844 156.449219 124.785156 156.652344 124.757812 156.855469 C 124.730469 157.0625 124.726562 157.269531 124.746094 157.476562 C 124.765625 157.683594 124.8125 157.882812 124.882812 158.078125 L 142.136719 207.300781 C 142.320312 207.832031 142.640625 208.257812 143.101562 208.578125 C 143.558594 208.898438 144.070312 209.054688 144.628906 209.046875 L 221.425781 209.046875 C 221.761719 209.046875 222.09375 209.078125 222.421875 209.144531 C 222.753906 209.210938 223.074219 209.308594 223.382812 209.4375 C 223.695312 209.566406 223.988281 209.722656 224.269531 209.910156 C 224.546875 210.097656 224.804688 210.308594 225.042969 210.546875 C 225.28125 210.785156 225.492188 211.042969 225.679688 211.320312 C 225.867188 211.601562 226.023438 211.894531 226.152344 212.207031 C 226.28125 212.515625 226.378906 212.835938 226.445312 213.167969 C 226.511719 213.496094 226.542969 213.828125 226.542969 214.164062 C 226.542969 214.5 226.511719 214.832031 226.445312 215.164062 C 226.378906 215.492188 226.28125 215.8125 226.152344 216.125 C 226.023438 216.433594 225.867188 216.730469 225.679688 217.007812 C 225.492188 217.289062 225.28125 217.546875 225.042969 217.785156 C 224.804688 218.023438 224.546875 218.234375 224.269531 218.421875 C 223.988281 218.605469 223.695312 218.765625 223.382812 218.894531 C 223.074219 219.023438 222.753906 219.121094 222.421875 219.183594 C 222.09375 219.25 221.761719 219.28125 221.425781 219.28125 L 152.730469 219.28125 C 152.363281 219.269531 152 219.292969 151.636719 219.351562 C 151.277344 219.410156 150.921875 219.503906 150.582031 219.636719 C 150.238281 219.765625 149.910156 219.929688 149.601562 220.125 C 149.292969 220.320312 149.003906 220.546875 148.742188 220.800781 C 148.476562 221.054688 148.238281 221.332031 148.03125 221.636719 C 147.824219 221.9375 147.648438 222.257812 147.503906 222.59375 C 147.359375 222.933594 147.25 223.28125 147.179688 223.640625 C 147.105469 224 147.066406 224.363281 147.066406 224.730469 C 147.066406 225.097656 147.105469 225.460938 147.179688 225.820312 C 147.25 226.179688 147.359375 226.527344 147.503906 226.863281 C 147.648438 227.203125 147.824219 227.523438 148.03125 227.824219 C 148.238281 228.125 148.476562 228.402344 148.742188 228.660156 C 149.003906 228.914062 149.292969 229.136719 149.601562 229.335938 C 149.910156 229.53125 150.238281 229.695312 150.582031 229.824219 C 150.921875 229.953125 151.277344 230.050781 151.636719 230.109375 C 152 230.167969 152.363281 230.191406 152.730469 230.175781 L 160.773438 230.175781 C 160.722656 230.550781 160.691406 230.925781 160.691406 231.304688 C 160.691406 231.847656 160.742188 232.378906 160.847656 232.910156 C 160.953125 233.441406 161.109375 233.953125 161.3125 234.453125 C 161.519531 234.953125 161.773438 235.425781 162.074219 235.875 C 162.375 236.324219 162.714844 236.738281 163.09375 237.121094 C 163.476562 237.503906 163.890625 237.84375 164.339844 238.144531 C 164.789062 238.441406 165.261719 238.695312 165.761719 238.902344 C 166.261719 239.109375 166.773438 239.265625 167.304688 239.371094 C 167.832031 239.476562 168.367188 239.53125 168.90625 239.53125 C 169.449219 239.53125 169.980469 239.476562 170.511719 239.371094 C 171.039062 239.265625 171.554688 239.109375 172.054688 238.902344 C 172.550781 238.695312 173.027344 238.441406 173.472656 238.144531 C 173.921875 237.84375 174.339844 237.503906 174.71875 237.121094 C 175.101562 236.738281 175.441406 236.324219 175.742188 235.875 C 176.042969 235.425781 176.292969 234.953125 176.5 234.453125 C 176.707031 233.953125 176.863281 233.441406 176.96875 232.910156 C 177.074219 232.378906 177.125 231.847656 177.125 231.304688 C 177.121094 230.925781 177.09375 230.550781 177.042969 230.175781 L 202.847656 230.175781 C 202.792969 230.550781 202.765625 230.925781 202.765625 231.304688 C 202.765625 231.847656 202.816406 232.378906 202.921875 232.910156 C 203.027344 233.4375 203.183594 233.953125 203.390625 234.449219 C 203.597656 234.949219 203.847656 235.421875 204.148438 235.871094 C 204.449219 236.320312 204.789062 236.734375 205.171875 237.117188 C 205.550781 237.5 205.96875 237.839844 206.417969 238.140625 C 206.863281 238.4375 207.339844 238.691406 207.835938 238.898438 C 208.335938 239.105469 208.847656 239.261719 209.378906 239.367188 C 209.90625 239.472656 210.441406 239.523438 210.980469 239.523438 C 211.519531 239.523438 212.054688 239.472656 212.585938 239.367188 C 213.113281 239.261719 213.628906 239.105469 214.125 238.898438 C 214.625 238.691406 215.097656 238.4375 215.546875 238.140625 C 215.996094 237.839844 216.410156 237.5 216.792969 237.117188 C 217.171875 236.734375 217.515625 236.320312 217.8125 235.871094 C 218.113281 235.421875 218.367188 234.949219 218.574219 234.449219 C 218.78125 233.953125 218.933594 233.4375 219.039062 232.910156 C 219.144531 232.378906 219.199219 231.847656 219.199219 231.304688 C 219.195312 230.925781 219.167969 230.550781 219.105469 230.175781 L 225.121094 230.175781 C 226.039062 230.175781 226.933594 230.03125 227.804688 229.738281 C 228.675781 229.449219 229.476562 229.027344 230.210938 228.472656 C 230.941406 227.917969 231.566406 227.261719 232.085938 226.503906 C 232.605469 225.746094 232.988281 224.925781 233.238281 224.042969 L 256.179688 142.617188 L 266.480469 142.617188 C 266.832031 142.617188 267.183594 142.582031 267.527344 142.511719 C 267.871094 142.441406 268.207031 142.339844 268.53125 142.203125 C 268.855469 142.066406 269.164062 141.898438 269.453125 141.699219 C 269.746094 141.5 270.011719 141.273438 270.257812 141.019531 C 270.503906 140.769531 270.71875 140.492188 270.910156 140.199219 C 271.101562 139.902344 271.257812 139.589844 271.386719 139.261719 C 271.515625 138.933594 271.609375 138.59375 271.667969 138.246094 C 271.726562 137.902344 271.75 137.550781 271.742188 137.199219 C 271.722656 136.855469 271.667969 136.515625 271.582031 136.183594 C 271.5 135.851562 271.382812 135.527344 271.238281 135.214844 C 271.089844 134.90625 270.917969 134.609375 270.714844 134.332031 C 270.511719 134.054688 270.285156 133.796875 270.035156 133.5625 C 269.78125 133.328125 269.511719 133.117188 269.21875 132.9375 C 268.929688 132.753906 268.625 132.597656 268.300781 132.472656 C 267.980469 132.347656 267.652344 132.253906 267.3125 132.195312 C 266.976562 132.132812 266.632812 132.101562 266.289062 132.105469 Z M 266.289062 132.105469 " fill-opacity="1" fill-rule="nonzero"/></g><g fill="#414042" fill-opacity="1"><g transform="translate(112.171872, 278.097842)"><g><path d="M 23.28125 0 L 15.5 0 L 7.484375 -15.46875 L 7.34375 -15.46875 C 7.53125 -13.039062 7.625 -11.1875 7.625 -9.90625 L 7.625 0 L 2.375 0 L 2.375 -21.96875 L 10.125 -21.96875 L 18.109375 -6.703125 L 18.203125 -6.703125 C 18.066406 -8.910156 18 -10.6875 18 -12.03125 L 18 -21.96875 L 23.28125 -21.96875 Z M 23.28125 0 "/></g></g></g><g fill="#414042" fill-opacity="1"><g transform="translate(137.833993, 278.097842)"><g><path d="M 10.25 0.296875 C 7.414062 0.296875 5.210938 -0.453125 3.640625 -1.953125 C 2.078125 -3.460938 1.296875 -5.609375 1.296875 -8.390625 C 1.296875 -11.265625 2.019531 -13.472656 3.46875 -15.015625 C 4.914062 -16.554688 6.988281 -17.328125 9.6875 -17.328125 C 12.25 -17.328125 14.226562 -16.65625 15.625 -15.3125 C 17.019531 -13.976562 17.71875 -12.054688 17.71875 -9.546875 L 17.71875 -6.921875 L 7.21875 -6.921875 C 7.257812 -5.972656 7.609375 -5.226562 8.265625 -4.6875 C 8.921875 -4.144531 9.816406 -3.875 10.953125 -3.875 C 11.984375 -3.875 12.929688 -3.972656 13.796875 -4.171875 C 14.660156 -4.367188 15.597656 -4.703125 16.609375 -5.171875 L 16.609375 -0.953125 C 15.691406 -0.472656 14.738281 -0.144531 13.75 0.03125 C 12.769531 0.207031 11.601562 0.296875 10.25 0.296875 Z M 9.90625 -13.328125 C 9.207031 -13.328125 8.625 -13.109375 8.15625 -12.671875 C 7.695312 -12.234375 7.425781 -11.550781 7.34375 -10.625 L 12.390625 -10.625 C 12.367188 -11.445312 12.132812 -12.101562 11.6875 -12.59375 C 11.25 -13.082031 10.65625 -13.328125 9.90625 -13.328125 Z M 9.90625 -13.328125 "/></g></g></g><g fill="#414042" fill-opacity="1"><g transform="translate(156.855215, 278.097842)"><g><path d="M 5.640625 -8.6875 L 0.4375 -17.015625 L 7.109375 -17.015625 L 9.6875 -12.25 L 12.328125 -17.015625 L 19.015625 -17.015625 L 13.6875 -8.6875 L 19.234375 0 L 12.5625 0 L 9.6875 -5.171875 L 6.828125 0 L 0.15625 0 Z M 5.640625 -8.6875 "/></g></g></g><g fill="#414042" fill-opacity="1"><g transform="translate(176.237027, 278.097842)"><g><path d="M 10.359375 -4.34375 C 11.148438 -4.34375 12.097656 -4.535156 13.203125 -4.921875 L 13.203125 -0.640625 C 12.410156 -0.304688 11.65625 -0.0664062 10.9375 0.078125 C 10.226562 0.222656 9.390625 0.296875 8.421875 0.296875 C 6.453125 0.296875 5.03125 -0.179688 4.15625 -1.140625 C 3.289062 -2.109375 2.859375 -3.597656 2.859375 -5.609375 L 2.859375 -12.625 L 0.796875 -12.625 L 0.796875 -15 L 3.40625 -16.859375 L 4.921875 -20.4375 L 8.765625 -20.4375 L 8.765625 -17.015625 L 12.953125 -17.015625 L 12.953125 -12.625 L 8.765625 -12.625 L 8.765625 -6 C 8.765625 -4.894531 9.296875 -4.34375 10.359375 -4.34375 Z M 10.359375 -4.34375 "/></g></g></g><g fill="#414042" fill-opacity="1"><g transform="translate(190.390258, 278.097842)"><g><path d="M 12.296875 -17.328125 C 12.804688 -17.328125 13.296875 -17.285156 13.765625 -17.203125 L 14.09375 -17.140625 L 13.5625 -11.59375 C 13.082031 -11.71875 12.414062 -11.78125 11.5625 -11.78125 C 10.28125 -11.78125 9.347656 -11.484375 8.765625 -10.890625 C 8.191406 -10.304688 7.90625 -9.46875 7.90625 -8.375 L 7.90625 0 L 2.03125 0 L 2.03125 -17.015625 L 6.40625 -17.015625 L 7.3125 -14.296875 L 7.59375 -14.296875 C 8.09375 -15.203125 8.78125 -15.929688 9.65625 -16.484375 C 10.53125 -17.046875 11.410156 -17.328125 12.296875 -17.328125 Z M 12.296875 -17.328125 "/></g></g></g><g fill="#414042" fill-opacity="1"><g transform="translate(204.828958, 278.097842)"><g><path d="M 13.125 0 L 12 -2.25 L 11.875 -2.25 C 11.09375 -1.269531 10.289062 -0.597656 9.46875 -0.234375 C 8.644531 0.117188 7.582031 0.296875 6.28125 0.296875 C 4.675781 0.296875 3.410156 -0.179688 2.484375 -1.140625 C 1.566406 -2.097656 1.109375 -3.453125 1.109375 -5.203125 C 1.109375 -7.015625 1.738281 -8.363281 3 -9.25 C 4.257812 -10.132812 6.085938 -10.628906 8.484375 -10.734375 L 11.328125 -10.828125 L 11.328125 -11.078125 C 11.328125 -12.472656 10.632812 -13.171875 9.25 -13.171875 C 8.007812 -13.171875 6.429688 -12.75 4.515625 -11.90625 L 2.828125 -15.78125 C 4.804688 -16.8125 7.304688 -17.328125 10.328125 -17.328125 C 12.515625 -17.328125 14.207031 -16.785156 15.40625 -15.703125 C 16.601562 -14.617188 17.203125 -13.101562 17.203125 -11.15625 L 17.203125 0 Z M 8.765625 -3.84375 C 9.484375 -3.84375 10.09375 -4.066406 10.59375 -4.515625 C 11.101562 -4.972656 11.359375 -5.5625 11.359375 -6.28125 L 11.359375 -7.59375 L 10 -7.546875 C 8.070312 -7.472656 7.109375 -6.757812 7.109375 -5.40625 C 7.109375 -4.363281 7.660156 -3.84375 8.765625 -3.84375 Z M 8.765625 -3.84375 "/></g></g></g><g fill="#414042" fill-opacity="1"><g transform="translate(224.000425, 278.097842)"><g><path d="M 7.3125 0.296875 C 6.101562 0.296875 5.046875 -0.046875 4.140625 -0.734375 C 3.234375 -1.421875 2.53125 -2.4375 2.03125 -3.78125 C 1.539062 -5.125 1.296875 -6.691406 1.296875 -8.484375 C 1.296875 -11.253906 1.847656 -13.421875 2.953125 -14.984375 C 4.066406 -16.546875 5.597656 -17.328125 7.546875 -17.328125 C 8.492188 -17.328125 9.320312 -17.132812 10.03125 -16.75 C 10.75 -16.363281 11.40625 -15.722656 12 -14.828125 L 12.125 -14.828125 C 11.9375 -16.160156 11.84375 -17.492188 11.84375 -18.828125 L 11.84375 -23.375 L 17.75 -23.375 L 17.75 0 L 13.328125 0 L 12.0625 -2.140625 L 11.84375 -2.140625 C 10.820312 -0.515625 9.3125 0.296875 7.3125 0.296875 Z M 9.71875 -4.34375 C 10.65625 -4.34375 11.316406 -4.632812 11.703125 -5.21875 C 12.085938 -5.8125 12.296875 -6.726562 12.328125 -7.96875 L 12.328125 -8.421875 C 12.328125 -9.929688 12.113281 -11.003906 11.6875 -11.640625 C 11.257812 -12.273438 10.582031 -12.59375 9.65625 -12.59375 C 8.882812 -12.59375 8.285156 -12.226562 7.859375 -11.5 C 7.429688 -10.769531 7.21875 -9.734375 7.21875 -8.390625 C 7.21875 -7.078125 7.429688 -6.070312 7.859375 -5.375 C 8.296875 -4.6875 8.914062 -4.34375 9.71875 -4.34375 Z M 9.71875 -4.34375 "/></g></g></g><g fill="#414042" fill-opacity="1"><g transform="translate(243.787904, 278.097842)"><g><path d="M 10.25 0.296875 C 7.414062 0.296875 5.210938 -0.453125 3.640625 -1.953125 C 2.078125 -3.460938 1.296875 -5.609375 1.296875 -8.390625 C 1.296875 -11.265625 2.019531 -13.472656 3.46875 -15.015625 C 4.914062 -16.554688 6.988281 -17.328125 9.6875 -17.328125 C 12.25 -17.328125 14.226562 -16.65625 15.625 -15.3125 C 17.019531 -13.976562 17.71875 -12.054688 17.71875 -9.546875 L 17.71875 -6.921875 L 7.21875 -6.921875 C 7.257812 -5.972656 7.609375 -5.226562 8.265625 -4.6875 C 8.921875 -4.144531 9.816406 -3.875 10.953125 -3.875 C 11.984375 -3.875 12.929688 -3.972656 13.796875 -4.171875 C 14.660156 -4.367188 15.597656 -4.703125 16.609375 -5.171875 L 16.609375 -0.953125 C 15.691406 -0.472656 14.738281 -0.144531 13.75 0.03125 C 12.769531 0.207031 11.601562 0.296875 10.25 0.296875 Z M 9.90625 -13.328125 C 9.207031 -13.328125 8.625 -13.109375 8.15625 -12.671875 C 7.695312 -12.234375 7.425781 -11.550781 7.34375 -10.625 L 12.390625 -10.625 C 12.367188 -11.445312 12.132812 -12.101562 11.6875 -12.59375 C 11.25 -13.082031 10.65625 -13.328125 9.90625 -13.328125 Z M 9.90625 -13.328125 "/></g></g></g><g fill="#414042" fill-opacity="1"><g transform="translate(111.829099, 302.312938)"><g><path d="M 5.140625 0 L 1.84375 -8.15625 L 1.796875 -8.15625 C 1.828125 -7.65625 1.84375 -7.144531 1.84375 -6.625 L 1.84375 0 L 1.25 0 L 1.25 -8.828125 L 2.203125 -8.828125 L 5.328125 -1.0625 L 5.375 -1.0625 L 8.5 -8.828125 L 9.4375 -8.828125 L 9.4375 0 L 8.8125 0 L 8.8125 -6.6875 C 8.8125 -7.15625 8.832031 -7.640625 8.875 -8.140625 L 8.828125 -8.140625 L 5.53125 0 Z M 5.140625 0 "/></g></g></g><g fill="#414042" fill-opacity="1"><g transform="translate(122.498578, 302.312938)"><g><path d="M 5.09375 0 L 4.9375 -1.046875 L 4.890625 -1.046875 C 4.554688 -0.617188 4.210938 -0.316406 3.859375 -0.140625 C 3.515625 0.0351562 3.109375 0.125 2.640625 0.125 C 1.992188 0.125 1.488281 -0.0390625 1.125 -0.375 C 0.769531 -0.707031 0.59375 -1.164062 0.59375 -1.75 C 0.59375 -2.382812 0.859375 -2.878906 1.390625 -3.234375 C 1.921875 -3.585938 2.691406 -3.773438 3.703125 -3.796875 L 4.953125 -3.84375 L 4.953125 -4.265625 C 4.953125 -4.890625 4.828125 -5.359375 4.578125 -5.671875 C 4.328125 -5.992188 3.921875 -6.15625 3.359375 -6.15625 C 2.742188 -6.15625 2.113281 -5.988281 1.46875 -5.65625 L 1.234375 -6.171875 C 1.960938 -6.515625 2.675781 -6.6875 3.375 -6.6875 C 4.09375 -6.6875 4.628906 -6.5 4.984375 -6.125 C 5.347656 -5.75 5.53125 -5.164062 5.53125 -4.375 L 5.53125 0 Z M 2.671875 -0.421875 C 3.367188 -0.421875 3.921875 -0.617188 4.328125 -1.015625 C 4.734375 -1.421875 4.9375 -1.976562 4.9375 -2.6875 L 4.9375 -3.34375 L 3.78125 -3.296875 C 2.863281 -3.253906 2.207031 -3.109375 1.8125 -2.859375 C 1.425781 -2.617188 1.234375 -2.238281 1.234375 -1.71875 C 1.234375 -1.3125 1.359375 -0.992188 1.609375 -0.765625 C 1.859375 -0.535156 2.210938 -0.421875 2.671875 -0.421875 Z M 2.671875 -0.421875 "/></g></g></g><g fill="#414042" fill-opacity="1"><g transform="translate(129.050012, 302.312938)"><g><path d="M 5.6875 0 L 5.6875 -4.265625 C 5.6875 -4.921875 5.546875 -5.398438 5.265625 -5.703125 C 4.984375 -6.003906 4.550781 -6.15625 3.96875 -6.15625 C 3.1875 -6.15625 2.613281 -5.953125 2.25 -5.546875 C 1.882812 -5.148438 1.703125 -4.507812 1.703125 -3.625 L 1.703125 0 L 1.09375 0 L 1.09375 -6.5625 L 1.609375 -6.5625 L 1.71875 -5.671875 L 1.765625 -5.671875 C 2.191406 -6.347656 2.945312 -6.6875 4.03125 -6.6875 C 5.519531 -6.6875 6.265625 -5.890625 6.265625 -4.296875 L 6.265625 0 Z M 5.6875 0 "/></g></g></g><g fill="#414042" fill-opacity="1"><g transform="translate(136.344144, 302.312938)"><g><path d="M 5.09375 0 L 4.9375 -1.046875 L 4.890625 -1.046875 C 4.554688 -0.617188 4.210938 -0.316406 3.859375 -0.140625 C 3.515625 0.0351562 3.109375 0.125 2.640625 0.125 C 1.992188 0.125 1.488281 -0.0390625 1.125 -0.375 C 0.769531 -0.707031 0.59375 -1.164062 0.59375 -1.75 C 0.59375 -2.382812 0.859375 -2.878906 1.390625 -3.234375 C 1.921875 -3.585938 2.691406 -3.773438 3.703125 -3.796875 L 4.953125 -3.84375 L 4.953125 -4.265625 C 4.953125 -4.890625 4.828125 -5.359375 4.578125 -5.671875 C 4.328125 -5.992188 3.921875 -6.15625 3.359375 -6.15625 C 2.742188 -6.15625 2.113281 -5.988281 1.46875 -5.65625 L 1.234375 -6.171875 C 1.960938 -6.515625 2.675781 -6.6875 3.375 -6.6875 C 4.09375 -6.6875 4.628906 -6.5 4.984375 -6.125 C 5.347656 -5.75 5.53125 -5.164062 5.53125 -4.375 L 5.53125 0 Z M 2.671875 -0.421875 C 3.367188 -0.421875 3.921875 -0.617188 4.328125 -1.015625 C 4.734375 -1.421875 4.9375 -1.976562 4.9375 -2.6875 L 4.9375 -3.34375 L 3.78125 -3.296875 C 2.863281 -3.253906 2.207031 -3.109375 1.8125 -2.859375 C 1.425781 -2.617188 1.234375 -2.238281 1.234375 -1.71875 C 1.234375 -1.3125 1.359375 -0.992188 1.609375 -0.765625 C 1.859375 -0.535156 2.210938 -0.421875 2.671875 -0.421875 Z M 2.671875 -0.421875 "/></g></g></g><g fill="#414042" fill-opacity="1"><g transform="translate(142.895579, 302.312938)"><g><path d="M 6.21875 -6.5625 L 6.21875 -6.15625 L 4.859375 -6.0625 C 5.222656 -5.613281 5.40625 -5.117188 5.40625 -4.578125 C 5.40625 -3.941406 5.191406 -3.425781 4.765625 -3.03125 C 4.347656 -2.644531 3.785156 -2.453125 3.078125 -2.453125 C 2.785156 -2.453125 2.578125 -2.460938 2.453125 -2.484375 C 2.210938 -2.359375 2.03125 -2.210938 1.90625 -2.046875 C 1.78125 -1.878906 1.71875 -1.703125 1.71875 -1.515625 C 1.71875 -1.304688 1.796875 -1.148438 1.953125 -1.046875 C 2.117188 -0.953125 2.390625 -0.90625 2.765625 -0.90625 L 3.90625 -0.90625 C 4.625 -0.90625 5.171875 -0.757812 5.546875 -0.46875 C 5.921875 -0.1875 6.109375 0.234375 6.109375 0.796875 C 6.109375 1.492188 5.828125 2.03125 5.265625 2.40625 C 4.703125 2.78125 3.90625 2.96875 2.875 2.96875 C 2.039062 2.96875 1.394531 2.804688 0.9375 2.484375 C 0.488281 2.171875 0.265625 1.734375 0.265625 1.171875 C 0.265625 0.710938 0.40625 0.332031 0.6875 0.03125 C 0.96875 -0.257812 1.347656 -0.457031 1.828125 -0.5625 C 1.628906 -0.644531 1.46875 -0.765625 1.34375 -0.921875 C 1.226562 -1.078125 1.171875 -1.257812 1.171875 -1.46875 C 1.171875 -1.90625 1.453125 -2.289062 2.015625 -2.625 C 1.628906 -2.78125 1.328125 -3.023438 1.109375 -3.359375 C 0.898438 -3.703125 0.796875 -4.085938 0.796875 -4.515625 C 0.796875 -5.171875 1.003906 -5.695312 1.421875 -6.09375 C 1.835938 -6.488281 2.40625 -6.6875 3.125 -6.6875 C 3.550781 -6.6875 3.882812 -6.644531 4.125 -6.5625 Z M 0.90625 1.109375 C 0.90625 2.015625 1.578125 2.46875 2.921875 2.46875 C 4.640625 2.46875 5.5 1.914062 5.5 0.8125 C 5.5 0.414062 5.363281 0.128906 5.09375 -0.046875 C 4.820312 -0.222656 4.382812 -0.3125 3.78125 -0.3125 L 2.71875 -0.3125 C 1.507812 -0.3125 0.90625 0.160156 0.90625 1.109375 Z M 1.40625 -4.515625 C 1.40625 -4.015625 1.554688 -3.625 1.859375 -3.34375 C 2.171875 -3.0625 2.585938 -2.921875 3.109375 -2.921875 C 3.648438 -2.921875 4.066406 -3.054688 4.359375 -3.328125 C 4.648438 -3.609375 4.796875 -4.015625 4.796875 -4.546875 C 4.796875 -5.109375 4.644531 -5.523438 4.34375 -5.796875 C 4.050781 -6.078125 3.632812 -6.21875 3.09375 -6.21875 C 2.570312 -6.21875 2.160156 -6.066406 1.859375 -5.765625 C 1.554688 -5.472656 1.40625 -5.054688 1.40625 -4.515625 Z M 1.40625 -4.515625 "/></g></g></g><g fill="#414042" fill-opacity="1"><g transform="translate(149.362479, 302.312938)"><g><path d="M 3.75 0.125 C 2.800781 0.125 2.054688 -0.164062 1.515625 -0.75 C 0.984375 -1.34375 0.71875 -2.171875 0.71875 -3.234375 C 0.71875 -4.273438 0.972656 -5.109375 1.484375 -5.734375 C 2.003906 -6.367188 2.703125 -6.6875 3.578125 -6.6875 C 4.347656 -6.6875 4.957031 -6.414062 5.40625 -5.875 C 5.851562 -5.34375 6.078125 -4.613281 6.078125 -3.6875 L 6.078125 -3.203125 L 1.34375 -3.203125 C 1.351562 -2.296875 1.5625 -1.601562 1.96875 -1.125 C 2.382812 -0.65625 2.976562 -0.421875 3.75 -0.421875 C 4.125 -0.421875 4.453125 -0.445312 4.734375 -0.5 C 5.023438 -0.550781 5.382812 -0.664062 5.8125 -0.84375 L 5.8125 -0.296875 C 5.445312 -0.128906 5.109375 -0.0195312 4.796875 0.03125 C 4.484375 0.09375 4.132812 0.125 3.75 0.125 Z M 3.578125 -6.15625 C 2.941406 -6.15625 2.429688 -5.945312 2.046875 -5.53125 C 1.671875 -5.113281 1.453125 -4.515625 1.390625 -3.734375 L 5.4375 -3.734375 C 5.4375 -4.492188 5.269531 -5.085938 4.9375 -5.515625 C 4.613281 -5.941406 4.160156 -6.15625 3.578125 -6.15625 Z M 3.578125 -6.15625 "/></g></g></g><g fill="#414042" fill-opacity="1"><g transform="translate(156.149403, 302.312938)"><g/></g></g><g fill="#414042" fill-opacity="1"><g transform="translate(159.361719, 302.312938)"><g><path d="M 0 -6.5625 L 0.609375 -6.5625 L 2 -2.875 C 2.425781 -1.75 2.695312 -0.988281 2.8125 -0.59375 L 2.84375 -0.59375 C 3.007812 -1.113281 3.285156 -1.890625 3.671875 -2.921875 L 5.0625 -6.5625 L 5.6875 -6.5625 L 2.734375 1.0625 C 2.492188 1.6875 2.289062 2.101562 2.125 2.3125 C 1.96875 2.53125 1.78125 2.691406 1.5625 2.796875 C 1.351562 2.910156 1.097656 2.96875 0.796875 2.96875 C 0.566406 2.96875 0.3125 2.925781 0.03125 2.84375 L 0.03125 2.328125 C 0.257812 2.390625 0.507812 2.421875 0.78125 2.421875 C 0.988281 2.421875 1.171875 2.375 1.328125 2.28125 C 1.484375 2.1875 1.625 2.035156 1.75 1.828125 C 1.875 1.617188 2.019531 1.296875 2.1875 0.859375 C 2.351562 0.421875 2.460938 0.132812 2.515625 0 Z M 0 -6.5625 "/></g></g></g><g fill="#414042" fill-opacity="1"><g transform="translate(165.037616, 302.312938)"><g><path d="M 6.53125 -3.296875 C 6.53125 -2.222656 6.269531 -1.382812 5.75 -0.78125 C 5.226562 -0.175781 4.507812 0.125 3.59375 0.125 C 3.019531 0.125 2.515625 -0.015625 2.078125 -0.296875 C 1.640625 -0.578125 1.300781 -0.972656 1.0625 -1.484375 C 0.832031 -2.003906 0.71875 -2.609375 0.71875 -3.296875 C 0.71875 -4.367188 0.976562 -5.203125 1.5 -5.796875 C 2.019531 -6.390625 2.734375 -6.6875 3.640625 -6.6875 C 4.535156 -6.6875 5.238281 -6.382812 5.75 -5.78125 C 6.269531 -5.175781 6.53125 -4.347656 6.53125 -3.296875 Z M 1.34375 -3.296875 C 1.34375 -2.390625 1.539062 -1.679688 1.9375 -1.171875 C 2.332031 -0.671875 2.894531 -0.421875 3.625 -0.421875 C 4.351562 -0.421875 4.914062 -0.671875 5.3125 -1.171875 C 5.707031 -1.679688 5.90625 -2.390625 5.90625 -3.296875 C 5.90625 -4.203125 5.703125 -4.90625 5.296875 -5.40625 C 4.898438 -5.90625 4.335938 -6.15625 3.609375 -6.15625 C 2.890625 -6.15625 2.332031 -5.90625 1.9375 -5.40625 C 1.539062 -4.90625 1.34375 -4.203125 1.34375 -3.296875 Z M 1.34375 -3.296875 "/></g></g></g><g fill="#414042" fill-opacity="1"><g transform="translate(172.283442, 302.312938)"><g><path d="M 1.625 -6.5625 L 1.625 -2.3125 C 1.625 -1.65625 1.757812 -1.175781 2.03125 -0.875 C 2.3125 -0.570312 2.742188 -0.421875 3.328125 -0.421875 C 4.109375 -0.421875 4.679688 -0.617188 5.046875 -1.015625 C 5.421875 -1.410156 5.609375 -2.050781 5.609375 -2.9375 L 5.609375 -6.5625 L 6.203125 -6.5625 L 6.203125 0 L 5.6875 0 L 5.578125 -0.90625 L 5.546875 -0.90625 C 5.117188 -0.21875 4.359375 0.125 3.265625 0.125 C 1.773438 0.125 1.03125 -0.675781 1.03125 -2.28125 L 1.03125 -6.5625 Z M 1.625 -6.5625 "/></g></g></g><g fill="#414042" fill-opacity="1"><g transform="translate(179.577574, 302.312938)"><g><path d="M 3.6875 -6.6875 C 3.96875 -6.6875 4.265625 -6.660156 4.578125 -6.609375 L 4.46875 -6.03125 C 4.1875 -6.101562 3.898438 -6.140625 3.609375 -6.140625 C 3.054688 -6.140625 2.597656 -5.898438 2.234375 -5.421875 C 1.878906 -4.953125 1.703125 -4.351562 1.703125 -3.625 L 1.703125 0 L 1.09375 0 L 1.09375 -6.5625 L 1.609375 -6.5625 L 1.671875 -5.390625 L 1.703125 -5.390625 C 1.972656 -5.867188 2.257812 -6.203125 2.5625 -6.390625 C 2.875 -6.585938 3.25 -6.6875 3.6875 -6.6875 Z M 3.6875 -6.6875 "/></g></g></g><g fill="#414042" fill-opacity="1"><g transform="translate(184.39001, 302.312938)"><g/></g></g><g fill="#414042" fill-opacity="1"><g transform="translate(187.602327, 302.312938)"><g><path d="M 5.171875 -1.703125 C 5.171875 -1.117188 4.945312 -0.664062 4.5 -0.34375 C 4.050781 -0.03125 3.414062 0.125 2.59375 0.125 C 1.71875 0.125 1.019531 -0.0078125 0.5 -0.28125 L 0.5 -0.9375 C 1.164062 -0.601562 1.863281 -0.4375 2.59375 -0.4375 C 3.25 -0.4375 3.742188 -0.539062 4.078125 -0.75 C 4.410156 -0.96875 4.578125 -1.257812 4.578125 -1.625 C 4.578125 -1.945312 4.441406 -2.222656 4.171875 -2.453125 C 3.910156 -2.679688 3.472656 -2.90625 2.859375 -3.125 C 2.203125 -3.351562 1.738281 -3.550781 1.46875 -3.71875 C 1.207031 -3.894531 1.007812 -4.09375 0.875 -4.3125 C 0.738281 -4.53125 0.671875 -4.789062 0.671875 -5.09375 C 0.671875 -5.59375 0.875 -5.984375 1.28125 -6.265625 C 1.695312 -6.546875 2.273438 -6.6875 3.015625 -6.6875 C 3.722656 -6.6875 4.398438 -6.554688 5.046875 -6.296875 L 4.8125 -5.75 C 4.164062 -6.019531 3.566406 -6.15625 3.015625 -6.15625 C 2.484375 -6.15625 2.0625 -6.066406 1.75 -5.890625 C 1.4375 -5.710938 1.28125 -5.460938 1.28125 -5.140625 C 1.28125 -4.804688 1.398438 -4.535156 1.640625 -4.328125 C 1.878906 -4.117188 2.351562 -3.890625 3.0625 -3.640625 C 3.65625 -3.421875 4.085938 -3.222656 4.359375 -3.046875 C 4.628906 -2.878906 4.832031 -2.6875 4.96875 -2.46875 C 5.101562 -2.257812 5.171875 -2.003906 5.171875 -1.703125 Z M 5.171875 -1.703125 "/></g></g></g><g fill="#414042" fill-opacity="1"><g transform="translate(193.362758, 302.312938)"><g><path d="M 2.828125 -0.40625 C 3.210938 -0.40625 3.546875 -0.4375 3.828125 -0.5 L 3.828125 -0.03125 C 3.535156 0.0703125 3.203125 0.125 2.828125 0.125 C 2.242188 0.125 1.8125 -0.03125 1.53125 -0.34375 C 1.257812 -0.65625 1.125 -1.144531 1.125 -1.8125 L 1.125 -6.046875 L 0.15625 -6.046875 L 0.15625 -6.40625 L 1.125 -6.671875 L 1.421875 -8.15625 L 1.734375 -8.15625 L 1.734375 -6.5625 L 3.65625 -6.5625 L 3.65625 -6.046875 L 1.734375 -6.046875 L 1.734375 -1.890625 C 1.734375 -1.390625 1.820312 -1.015625 2 -0.765625 C 2.175781 -0.523438 2.453125 -0.40625 2.828125 -0.40625 Z M 2.828125 -0.40625 "/></g></g></g><g fill="#414042" fill-opacity="1"><g transform="translate(197.504956, 302.312938)"><g><path d="M 6.53125 -3.296875 C 6.53125 -2.222656 6.269531 -1.382812 5.75 -0.78125 C 5.226562 -0.175781 4.507812 0.125 3.59375 0.125 C 3.019531 0.125 2.515625 -0.015625 2.078125 -0.296875 C 1.640625 -0.578125 1.300781 -0.972656 1.0625 -1.484375 C 0.832031 -2.003906 0.71875 -2.609375 0.71875 -3.296875 C 0.71875 -4.367188 0.976562 -5.203125 1.5 -5.796875 C 2.019531 -6.390625 2.734375 -6.6875 3.640625 -6.6875 C 4.535156 -6.6875 5.238281 -6.382812 5.75 -5.78125 C 6.269531 -5.175781 6.53125 -4.347656 6.53125 -3.296875 Z M 1.34375 -3.296875 C 1.34375 -2.390625 1.539062 -1.679688 1.9375 -1.171875 C 2.332031 -0.671875 2.894531 -0.421875 3.625 -0.421875 C 4.351562 -0.421875 4.914062 -0.671875 5.3125 -1.171875 C 5.707031 -1.679688 5.90625 -2.390625 5.90625 -3.296875 C 5.90625 -4.203125 5.703125 -4.90625 5.296875 -5.40625 C 4.898438 -5.90625 4.335938 -6.15625 3.609375 -6.15625 C 2.890625 -6.15625 2.332031 -5.90625 1.9375 -5.40625 C 1.539062 -4.90625 1.34375 -4.203125 1.34375 -3.296875 Z M 1.34375 -3.296875 "/></g></g></g><g fill="#414042" fill-opacity="1"><g transform="translate(204.750782, 302.312938)"><g><path d="M 3.71875 0.125 C 2.78125 0.125 2.046875 -0.171875 1.515625 -0.765625 C 0.984375 -1.359375 0.71875 -2.1875 0.71875 -3.25 C 0.71875 -4.332031 0.992188 -5.175781 1.546875 -5.78125 C 2.097656 -6.382812 2.851562 -6.6875 3.8125 -6.6875 C 4.382812 -6.6875 4.925781 -6.59375 5.4375 -6.40625 L 5.28125 -5.875 C 4.707031 -6.0625 4.210938 -6.15625 3.796875 -6.15625 C 2.992188 -6.15625 2.382812 -5.90625 1.96875 -5.40625 C 1.550781 -4.90625 1.34375 -4.1875 1.34375 -3.25 C 1.34375 -2.363281 1.550781 -1.671875 1.96875 -1.171875 C 2.382812 -0.671875 2.960938 -0.421875 3.703125 -0.421875 C 4.304688 -0.421875 4.863281 -0.53125 5.375 -0.75 L 5.375 -0.1875 C 4.957031 0.0195312 4.40625 0.125 3.71875 0.125 Z M 3.71875 0.125 "/></g></g></g><g fill="#414042" fill-opacity="1"><g transform="translate(210.625939, 302.312938)"><g><path d="M 1.6875 -2.875 L 5.046875 -6.5625 L 5.765625 -6.5625 L 3.171875 -3.765625 L 5.984375 0 L 5.265625 0 L 2.78125 -3.3125 L 1.703125 -2.34375 L 1.703125 0 L 1.09375 0 L 1.09375 -9.40625 L 1.703125 -9.40625 L 1.703125 -4.6875 L 1.65625 -2.875 Z M 1.6875 -2.875 "/></g></g></g><g fill="#414042" fill-opacity="1"><g transform="translate(216.609784, 302.312938)"><g/></g></g><g fill="#414042" fill-opacity="1"><g transform="translate(219.822101, 302.312938)"><g><path d="M 3.875 -6.6875 C 4.789062 -6.6875 5.476562 -6.394531 5.9375 -5.8125 C 6.40625 -5.238281 6.640625 -4.398438 6.640625 -3.296875 C 6.640625 -2.203125 6.394531 -1.359375 5.90625 -0.765625 C 5.414062 -0.171875 4.726562 0.125 3.84375 0.125 C 3.375 0.125 2.953125 0.03125 2.578125 -0.15625 C 2.210938 -0.351562 1.921875 -0.628906 1.703125 -0.984375 L 1.640625 -0.984375 L 1.46875 0 L 1.09375 0 L 1.09375 -9.40625 L 1.703125 -9.40625 L 1.703125 -7.046875 C 1.703125 -6.679688 1.691406 -6.351562 1.671875 -6.0625 L 1.65625 -5.546875 L 1.703125 -5.546875 C 1.953125 -5.941406 2.25 -6.226562 2.59375 -6.40625 C 2.945312 -6.59375 3.375 -6.6875 3.875 -6.6875 Z M 3.859375 -6.15625 C 3.085938 -6.15625 2.535156 -5.929688 2.203125 -5.484375 C 1.867188 -5.046875 1.703125 -4.316406 1.703125 -3.296875 L 1.703125 -3.1875 C 1.703125 -2.195312 1.875 -1.484375 2.21875 -1.046875 C 2.570312 -0.617188 3.113281 -0.40625 3.84375 -0.40625 C 4.5625 -0.40625 5.101562 -0.65625 5.46875 -1.15625 C 5.832031 -1.664062 6.015625 -2.382812 6.015625 -3.3125 C 6.015625 -5.207031 5.296875 -6.15625 3.859375 -6.15625 Z M 3.859375 -6.15625 "/></g></g></g><g fill="#414042" fill-opacity="1"><g transform="translate(227.182652, 302.312938)"><g><path d="M 0 -6.5625 L 0.609375 -6.5625 L 2 -2.875 C 2.425781 -1.75 2.695312 -0.988281 2.8125 -0.59375 L 2.84375 -0.59375 C 3.007812 -1.113281 3.285156 -1.890625 3.671875 -2.921875 L 5.0625 -6.5625 L 5.6875 -6.5625 L 2.734375 1.0625 C 2.492188 1.6875 2.289062 2.101562 2.125 2.3125 C 1.96875 2.53125 1.78125 2.691406 1.5625 2.796875 C 1.351562 2.910156 1.097656 2.96875 0.796875 2.96875 C 0.566406 2.96875 0.3125 2.925781 0.03125 2.84375 L 0.03125 2.328125 C 0.257812 2.390625 0.507812 2.421875 0.78125 2.421875 C 0.988281 2.421875 1.171875 2.375 1.328125 2.28125 C 1.484375 2.1875 1.625 2.035156 1.75 1.828125 C 1.875 1.617188 2.019531 1.296875 2.1875 0.859375 C 2.351562 0.421875 2.460938 0.132812 2.515625 0 Z M 0 -6.5625 "/></g></g></g><g fill="#414042" fill-opacity="1"><g transform="translate(232.85855, 302.312938)"><g/></g></g><g fill="#414042" fill-opacity="1"><g transform="translate(236.070866, 302.312938)"><g><path d="M 5.09375 0 L 4.9375 -1.046875 L 4.890625 -1.046875 C 4.554688 -0.617188 4.210938 -0.316406 3.859375 -0.140625 C 3.515625 0.0351562 3.109375 0.125 2.640625 0.125 C 1.992188 0.125 1.488281 -0.0390625 1.125 -0.375 C 0.769531 -0.707031 0.59375 -1.164062 0.59375 -1.75 C 0.59375 -2.382812 0.859375 -2.878906 1.390625 -3.234375 C 1.921875 -3.585938 2.691406 -3.773438 3.703125 -3.796875 L 4.953125 -3.84375 L 4.953125 -4.265625 C 4.953125 -4.890625 4.828125 -5.359375 4.578125 -5.671875 C 4.328125 -5.992188 3.921875 -6.15625 3.359375 -6.15625 C 2.742188 -6.15625 2.113281 -5.988281 1.46875 -5.65625 L 1.234375 -6.171875 C 1.960938 -6.515625 2.675781 -6.6875 3.375 -6.6875 C 4.09375 -6.6875 4.628906 -6.5 4.984375 -6.125 C 5.347656 -5.75 5.53125 -5.164062 5.53125 -4.375 L 5.53125 0 Z M 2.671875 -0.421875 C 3.367188 -0.421875 3.921875 -0.617188 4.328125 -1.015625 C 4.734375 -1.421875 4.9375 -1.976562 4.9375 -2.6875 L 4.9375 -3.34375 L 3.78125 -3.296875 C 2.863281 -3.253906 2.207031 -3.109375 1.8125 -2.859375 C 1.425781 -2.617188 1.234375 -2.238281 1.234375 -1.71875 C 1.234375 -1.3125 1.359375 -0.992188 1.609375 -0.765625 C 1.859375 -0.535156 2.210938 -0.421875 2.671875 -0.421875 Z M 2.671875 -0.421875 "/></g></g></g><g fill="#414042" fill-opacity="1"><g transform="translate(242.6223, 302.312938)"><g/></g></g><g fill="#414042" fill-opacity="1"><g transform="translate(245.834617, 302.312938)"><g><path d="M 3.71875 0.125 C 2.78125 0.125 2.046875 -0.171875 1.515625 -0.765625 C 0.984375 -1.359375 0.71875 -2.1875 0.71875 -3.25 C 0.71875 -4.332031 0.992188 -5.175781 1.546875 -5.78125 C 2.097656 -6.382812 2.851562 -6.6875 3.8125 -6.6875 C 4.382812 -6.6875 4.925781 -6.59375 5.4375 -6.40625 L 5.28125 -5.875 C 4.707031 -6.0625 4.210938 -6.15625 3.796875 -6.15625 C 2.992188 -6.15625 2.382812 -5.90625 1.96875 -5.40625 C 1.550781 -4.90625 1.34375 -4.1875 1.34375 -3.25 C 1.34375 -2.363281 1.550781 -1.671875 1.96875 -1.171875 C 2.382812 -0.671875 2.960938 -0.421875 3.703125 -0.421875 C 4.304688 -0.421875 4.863281 -0.53125 5.375 -0.75 L 5.375 -0.1875 C 4.957031 0.0195312 4.40625 0.125 3.71875 0.125 Z M 3.71875 0.125 "/></g></g></g><g fill="#414042" fill-opacity="1"><g transform="translate(251.709774, 302.312938)"><g><path d="M 1.703125 0 L 1.09375 0 L 1.09375 -9.40625 L 1.703125 -9.40625 Z M 1.703125 0 "/></g></g></g><g fill="#414042" fill-opacity="1"><g transform="translate(254.505455, 302.312938)"><g><path d="M 1.703125 0 L 1.09375 0 L 1.09375 -6.5625 L 1.703125 -6.5625 Z M 1.015625 -8.390625 C 1.015625 -8.773438 1.140625 -8.96875 1.390625 -8.96875 C 1.515625 -8.96875 1.613281 -8.914062 1.6875 -8.8125 C 1.757812 -8.71875 1.796875 -8.578125 1.796875 -8.390625 C 1.796875 -8.210938 1.757812 -8.070312 1.6875 -7.96875 C 1.613281 -7.863281 1.515625 -7.8125 1.390625 -7.8125 C 1.140625 -7.8125 1.015625 -8.003906 1.015625 -8.390625 Z M 1.015625 -8.390625 "/></g></g></g><g fill="#414042" fill-opacity="1"><g transform="translate(257.301137, 302.312938)"><g><path d="M 3.71875 0.125 C 2.78125 0.125 2.046875 -0.171875 1.515625 -0.765625 C 0.984375 -1.359375 0.71875 -2.1875 0.71875 -3.25 C 0.71875 -4.332031 0.992188 -5.175781 1.546875 -5.78125 C 2.097656 -6.382812 2.851562 -6.6875 3.8125 -6.6875 C 4.382812 -6.6875 4.925781 -6.59375 5.4375 -6.40625 L 5.28125 -5.875 C 4.707031 -6.0625 4.210938 -6.15625 3.796875 -6.15625 C 2.992188 -6.15625 2.382812 -5.90625 1.96875 -5.40625 C 1.550781 -4.90625 1.34375 -4.1875 1.34375 -3.25 C 1.34375 -2.363281 1.550781 -1.671875 1.96875 -1.171875 C 2.382812 -0.671875 2.960938 -0.421875 3.703125 -0.421875 C 4.304688 -0.421875 4.863281 -0.53125 5.375 -0.75 L 5.375 -0.1875 C 4.957031 0.0195312 4.40625 0.125 3.71875 0.125 Z M 3.71875 0.125 "/></g></g></g></svg>